<?xml version="1.0" standalone="no"?>
<!DOCTYPE svg PUBLIC "-//W3C//DTD SVG 20010904//EN"
 "http://www.w3.org/TR/2001/REC-SVG-20010904/DTD/svg10.dtd">
<svg version="1.0" xmlns="http://www.w3.org/2000/svg"
 width="300.000000pt" height="300.000000pt" viewBox="0 0 300.000000 300.000000"
 preserveAspectRatio="xMidYMid meet">
<metadata>
Created by potrace 1.14, written by Peter Selinger 2001-2017
</metadata>
<g transform="translate(0.000000,300.000000) scale(0.100000,-0.100000)"
fill="#000000" stroke="none">
<path d="M1040 2673 c-24 -2 -49 -8 -55 -13 -5 -4 -31 -11 -58 -15 -26 -4 -49
-11 -52 -15 -3 -5 -23 -11 -45 -15 -22 -4 -42 -11 -46 -16 -3 -5 -12 -9 -20
-9 -17 0 -168 -72 -172 -82 -2 -5 -9 -8 -16 -8 -16 0 -140 -83 -185 -124 -86
-77 -176 -175 -222 -241 -18 -27 -36 -52 -39 -55 -11 -11 -31 -48 -55 -100
-14 -30 -30 -63 -35 -72 -5 -9 -13 -36 -16 -60 -4 -24 -11 -48 -16 -55 -11
-14 -5 -115 12 -218 31 -184 165 -345 309 -371 20 -4 41 -10 46 -14 6 -4 75
-10 155 -13 80 -3 161 -11 180 -18 19 -6 55 -19 80 -27 26 -9 62 -32 85 -56
50 -52 72 -123 79 -266 3 -58 10 -106 16 -108 5 -2 10 -12 10 -22 0 -10 16
-49 35 -86 61 -117 199 -229 330 -267 86 -24 582 -6 620 23 6 4 36 11 67 14
32 4 60 12 63 17 4 5 14 9 24 9 65 0 355 131 423 191 17 16 35 29 39 29 4 0
49 42 101 92 86 86 198 229 198 255 0 6 3 13 8 15 27 12 86 194 104 323 11 76
3 331 -11 380 -5 17 -17 64 -26 105 -16 71 -34 119 -73 200 -9 19 -20 37 -24
38 -5 2 -8 9 -8 16 0 33 -147 212 -230 281 -80 65 -292 185 -329 185 -6 0 -11
4 -11 9 0 5 -16 12 -35 15 -19 4 -35 10 -35 14 0 4 -19 13 -42 19 -24 6 -70
19 -103 28 -33 9 -85 22 -115 28 -30 7 -59 15 -65 18 -5 4 -46 10 -90 14 -44
4 -86 12 -93 18 -13 10 -576 19 -662 10z m106 -322 c46 -23 93 -66 105 -99 12
-30 12 -124 0 -155 -11 -29 -56 -78 -93 -101 -41 -27 -151 -24 -192 5 -37 25
-76 77 -76 102 0 8 -4 19 -10 22 -28 18 4 137 51 187 55 58 143 74 215 39z
m635 2 c75 -36 112 -95 111 -176 0 -75 -10 -104 -53 -146 -41 -42 -67 -51
-139 -51 -70 0 -95 9 -135 47 -132 122 -45 339 136 342 25 1 61 -7 80 -16z
m639 -322 c19 -10 50 -38 68 -62 33 -42 34 -45 30 -124 -4 -90 -18 -115 -93
-163 -33 -21 -52 -25 -105 -25 -38 0 -66 5 -68 12 -2 6 -9 11 -16 11 -14 0
-75 63 -94 97 -6 13 -12 48 -12 78 0 71 43 142 104 174 53 27 138 28 186 2z
m-1800 -166 c61 -39 94 -97 94 -170 0 -67 -16 -100 -73 -152 -88 -80 -246 -46
-300 63 -27 54 -27 127 -1 177 41 76 88 104 178 106 51 1 70 -4 102 -24z m943
-772 c29 -9 58 -23 65 -30 7 -7 17 -13 22 -13 5 0 26 -24 47 -52 37 -51 38
-55 37 -133 0 -85 -8 -106 -59 -163 -48 -54 -106 -75 -190 -70 -77 5 -109 20
-163 78 -31 34 -62 110 -62 155 0 86 91 206 170 224 23 5 44 12 47 15 10 10
31 7 86 -11z"/>
<path d="M1676 2351 c-3 -5 -22 -12 -41 -15 -19 -4 -35 -11 -35 -16 0 -6 -7
-10 -15 -10 -9 0 -19 -8 -22 -17 -4 -10 -11 -21 -17 -25 -6 -4 -12 -38 -14
-77 -3 -57 0 -77 19 -115 12 -25 32 -49 43 -52 12 -4 24 -12 28 -17 10 -16
151 -14 156 1 2 7 9 12 15 12 15 0 57 44 57 58 0 6 6 12 13 15 16 5 17 145 1
155 -6 4 -14 16 -18 27 -8 24 -69 65 -97 65 -10 0 -19 5 -19 10 0 12 -47 13
-54 1z"/>
<path d="M2276 2033 c-34 -9 -116 -98 -116 -125 0 -13 -5 -29 -12 -36 -9 -9
-9 -17 -1 -34 6 -13 14 -36 18 -52 8 -35 68 -96 96 -96 10 0 19 -4 19 -10 0
-16 84 -11 121 7 38 19 79 60 79 79 0 7 6 14 13 17 8 2 12 26 12 73 0 62 -3
72 -27 98 -16 16 -28 33 -28 37 0 5 -7 9 -15 9 -7 0 -18 7 -22 15 -9 15 -103
28 -137 18z"/>
</g>
</svg>
